<!DOCTYPE svg PUBLIC "-//W3C//DTD SVG 20010904//EN" "http://www.w3.org/TR/2001/REC-SVG-20010904/DTD/svg10.dtd">
<svg version="1.0" xmlns="http://www.w3.org/2000/svg" width="256px" height="100px" viewBox="0 0 2560 1000" preserveAspectRatio="xMidYMid meet">
<g id="layer101" fill="#fff" stroke="none">
 <path d="M1270 960 c-9 -6 -15 -29 -16 -70 -1 -50 2 -62 17 -71 11 -5 71 -9 137 -7 l117 3 3 30 c2 17 8 35 13 41 14 17 0 24 -48 24 -39 0 -43 -2 -43 -24 0 -17 7 -26 25 -30 14 -4 23 -11 20 -17 -5 -6 -12 -5 -23 3 -11 9 -16 10 -19 2 -7 -22 -43 -3 -43 22 0 13 5 24 10 24 6 0 10 5 10 10 0 6 -16 10 -35 10 -24 0 -35 5 -35 14 0 17 -38 46 -60 46 -8 0 -22 -4 -30 -10z m60 -31 c0 -5 -11 -9 -25 -9 -26 0 -34 15 -12 23 16 5 37 -3 37 -14z m50 -63 c0 -13 -3 -25 -6 -29 -10 -9 -34 4 -34 19 0 8 -8 18 -17 21 -15 6 -14 8 7 13 35 9 50 2 50 -24z m120 14 c0 -5 -4 -10 -10 -10 -5 0 -10 5 -10 10 0 6 5 10 10 10 6 0 10 -4 10 -10z m-190 -30 c0 -21 -15 -27 -25 -10 -7 12 2 30 16 30 5 0 9 -9 9 -20z"/>
 <path d="M1548 948 c15 -15 16 -104 2 -113 -21 -13 1 -23 50 -23 45 -1 52 2 60 24 13 34 -3 63 -41 71 -26 5 -43 33 -19 33 6 0 10 5 10 10 0 6 -17 10 -37 10 -29 0 -34 -3 -25 -12z m80 -86 c3 -17 -2 -22 -17 -22 -16 0 -21 6 -21 26 0 33 33 30 38 -4z"/>
 <path d="M1800 952 c0 -5 7 -15 15 -22 21 -17 19 -53 -5 -83 -26 -33 -25 -37 10 -37 19 0 30 5 29 13 -3 25 1 38 11 32 6 -4 8 -15 5 -26 -5 -16 -1 -19 24 -19 30 0 43 14 20 22 -6 2 -25 30 -42 63 -18 33 -40 61 -49 63 -10 2 -18 -1 -18 -6z"/>
 <path d="M650 901 c0 -5 7 -11 15 -15 22 -8 20 -92 -2 -105 -21 -12 -15 -13 52 -11 54 2 75 13 75 40 0 23 -23 42 -55 44 -17 1 -25 7 -25 19 0 9 5 17 10 17 6 0 10 5 10 10 0 6 -18 10 -40 10 -22 0 -40 -4 -40 -9z m98 -85 c4 -17 -12 -35 -30 -36 -5 0 -8 14 -8 31 0 24 4 30 17 27 10 -2 19 -12 21 -22z"/>
 <path d="M790 901 c0 -6 5 -13 10 -16 15 -9 13 -102 -2 -108 -16 -5 -10 -13 20 -21 19 -7 22 -4 22 23 0 25 4 30 28 33 23 3 27 8 30 41 2 20 7 37 13 37 5 0 9 5 9 10 0 6 -13 10 -29 10 -26 0 -28 -3 -27 -35 0 -19 -3 -34 -9 -34 -5 0 -9 15 -9 34 1 32 -1 35 -27 35 -16 0 -29 -4 -29 -9z"/>
 <path d="M942 898 c-19 -19 -15 -66 7 -78 26 -14 64 -13 79 2 19 19 15 66 -7 78 -26 14 -64 13 -79 -2z m65 -24 c7 -19 -20 -49 -36 -40 -12 8 -15 39 -4 49 12 12 33 7 40 -9z"/>
 <path d="M1066 898 c-15 -46 -14 -89 2 -105 16 -15 17 -15 20 0 2 9 10 17 18 17 8 0 14 5 14 10 0 6 -7 10 -16 10 -11 0 -14 8 -12 28 2 16 8 26 16 24 8 -1 12 3 10 10 -6 18 -47 23 -52 6z"/>
 <path d="M1142 898 c-19 -19 -15 -66 7 -78 26 -14 64 -13 79 2 19 19 15 66 -7 78 -26 14 -64 13 -79 -2z m65 -24 c7 -19 -20 -49 -36 -40 -12 8 -15 39 -4 49 12 12 33 7 40 -9z"/>
 <path d="M1670 901 c0 -6 5 -13 10 -16 15 -9 13 -102 -2 -108 -16 -5 -10 -13 20 -21 19 -7 22 -4 22 23 0 25 4 30 28 33 23 3 27 8 30 41 2 20 7 37 13 37 5 0 9 5 9 10 0 6 -13 10 -29 10 -26 0 -28 -3 -27 -35 0 -19 -3 -34 -9 -34 -5 0 -9 15 -9 34 1 32 -1 35 -27 35 -16 0 -29 -4 -29 -9z"/>
 <path d="M1378 608 c7 -7 12 -29 12 -50 0 -32 -3 -38 -21 -38 -18 0 -21 4 -16 29 l6 30 -52 -1 c-29 0 -58 -6 -65 -11 -10 -8 -16 -7 -21 2 -5 7 -23 11 -47 9 -31 -2 -41 -9 -53 -32 -10 -21 -11 -34 -2 -52 21 -47 115 -57 103 -12 -5 19 -6 19 -17 4 -17 -23 -44 -20 -56 8 -13 29 3 66 29 66 21 -1 52 -23 52 -39 0 -17 42 -30 63 -19 9 5 17 20 17 33 0 14 5 25 11 25 7 0 9 -11 6 -30 -4 -16 -3 -30 1 -31 29 -4 109 -5 120 -1 6 2 12 17 12 33 0 22 -7 32 -25 41 -28 13 -30 19 -13 36 9 9 4 12 -22 12 -26 0 -31 -3 -22 -12z m-92 -59 c3 -6 -1 -18 -10 -27 -15 -15 -16 -14 -16 11 0 27 13 36 26 16z m149 -9 c0 -7 -6 -15 -12 -17 -8 -3 -13 4 -13 17 0 13 5 20 13 18 6 -3 12 -11 12 -18z"/>
 <path d="M820 570 c0 -5 4 -10 10 -10 5 0 17 -22 27 -50 10 -27 23 -50 30 -50 7 0 20 23 30 50 19 54 39 68 30 21 -7 -32 7 -43 42 -36 11 2 22 -3 25 -11 7 -18 26 -18 26 0 0 8 6 17 13 20 10 5 10 7 0 12 -16 7 -17 44 -1 44 9 0 9 3 1 11 -18 18 -43 2 -43 -26 0 -16 -6 -25 -16 -25 -13 0 -15 7 -10 30 5 30 5 30 -39 30 -38 0 -45 -3 -45 -19 0 -25 -20 -38 -31 -20 -5 8 -4 15 1 17 22 8 8 22 -20 22 -16 0 -30 -4 -30 -10z m67 -67 c-4 -3 -7 0 -7 7 0 7 3 10 7 7 3 -4 3 -10 0 -14z"/>
 <path d="M1477 573 c-4 -3 -7 -19 -7 -35 0 -32 33 -52 61 -38 8 5 21 5 28 1 20 -12 113 -4 123 11 6 9 8 0 4 -24 -4 -33 -2 -38 15 -38 16 0 19 7 19 49 0 27 3 56 6 65 5 12 -4 15 -45 14 -54 0 -77 -15 -68 -47 3 -14 1 -18 -10 -14 -10 4 -13 14 -9 34 5 26 3 29 -19 29 -21 0 -24 -4 -21 -27 2 -16 1 -21 -1 -13 -9 26 -25 40 -48 40 -12 0 -25 -3 -28 -7z m46 -19 c3 -4 2 -16 -4 -26 -13 -24 -33 -10 -23 15 6 18 16 21 27 11z m167 -10 c0 -7 -10 -9 -25 -6 -29 5 -26 18 4 18 12 0 21 -5 21 -12z"/>
 <path d="M1060 540 c0 -5 12 -10 26 -10 14 0 23 4 19 10 -3 6 -15 10 -26 10 -10 0 -19 -4 -19 -10z"/>
 <path d="M20 530 c0 -6 138 -10 395 -10 257 0 395 4 395 10 0 6 -138 10 -395 10 -257 0 -395 -4 -395 -10z"/>
 <path d="M1740 530 c0 -6 140 -10 400 -10 260 0 400 4 400 10 0 7 -140 10 -400 10 -260 0 -400 -3 -400 -10z"/>
 <path d="M1521 371 c-8 -5 -11 -16 -7 -26 4 -13 13 -15 36 -10 53 12 60 -4 60 -131 0 -104 -2 -113 -20 -119 -39 -12 -19 -25 40 -25 57 0 78 11 45 24 -12 4 -15 25 -15 102 0 109 -14 150 -59 177 -32 19 -59 21 -80 8z"/>
 <path d="M30 283 c0 -7 9 -13 20 -13 19 0 20 -7 20 -89 0 -81 -2 -90 -20 -96 -11 -3 -20 -11 -20 -16 0 -12 152 -12 184 1 36 13 53 52 38 86 -12 26 -72 57 -100 52 -26 -5 -26 -28 1 -28 50 0 64 -64 18 -86 -44 -22 -51 -10 -51 87 0 82 1 89 20 89 11 0 20 6 20 13 0 8 -20 12 -65 12 -45 0 -65 -4 -65 -12z"/>
 <path d="M280 283 c0 -7 6 -13 14 -13 20 0 26 -23 26 -101 0 -58 -3 -71 -20 -81 -33 -21 -23 -28 40 -28 33 0 60 2 60 5 0 3 -9 14 -20 25 -15 15 -20 33 -20 78 0 93 5 102 56 102 l44 0 0 -90 c0 -71 -3 -92 -15 -96 -39 -15 -6 -24 91 -24 93 0 105 2 100 16 -3 9 -6 22 -6 30 0 8 -7 14 -15 14 -8 0 -15 -7 -15 -15 0 -11 -12 -15 -45 -15 -45 0 -45 0 -45 35 0 33 2 35 34 35 19 0 38 -4 41 -10 3 -6 13 -10 21 -10 10 0 14 12 14 40 0 41 -21 57 -34 25 -3 -9 -19 -15 -41 -15 -36 0 -36 1 -33 38 3 37 4 37 50 40 39 3 49 -1 60 -17 14 -23 38 -28 38 -8 0 7 -6 22 -14 33 -13 18 -28 19 -190 19 -134 0 -176 -3 -176 -12z"/>
 <path d="M670 283 c0 -7 9 -13 20 -13 19 0 20 -7 20 -91 0 -82 -2 -91 -20 -96 -11 -3 -20 -9 -20 -14 0 -14 162 -10 190 4 35 17 39 68 9 96 l-23 21 39 40 c30 31 47 40 72 40 l33 0 0 -91 c0 -82 -2 -91 -20 -96 -45 -12 -15 -23 61 -23 77 0 115 10 131 34 15 22 7 55 -16 74 l-25 19 42 41 c32 32 51 42 75 42 l32 0 0 -91 c0 -82 -2 -91 -20 -96 -49 -13 -12 -23 85 -23 l105 0 0 30 c0 32 -23 42 -34 15 -3 -10 -19 -15 -46 -15 -39 0 -40 1 -40 35 0 33 2 35 34 35 19 0 38 -4 41 -10 3 -5 12 -10 20 -10 10 0 12 10 8 38 -7 46 -12 52 -24 29 -7 -11 -22 -17 -45 -17 -35 0 -35 1 -32 38 3 36 5 37 44 40 30 2 45 -2 59 -18 25 -28 48 -27 39 3 -13 44 -18 45 -167 43 l-141 -3 -42 -46 c-52 -58 -74 -61 -74 -12 0 28 4 35 20 35 11 0 20 6 20 13 0 10 -25 13 -102 12 l-101 -1 -42 -47 c-49 -56 -75 -61 -75 -16 0 22 5 32 20 36 11 3 20 10 20 17 0 7 -23 11 -65 11 -45 0 -65 -4 -65 -12z m160 -128 c17 -20 9 -48 -19 -61 -36 -18 -51 -7 -51 37 0 36 2 39 29 39 16 0 34 -7 41 -15z m278 3 c28 -28 8 -63 -38 -70 -23 -3 -25 1 -28 40 -3 40 -2 42 25 42 16 0 34 -5 41 -12z"/>
 <path d="M1779 277 c-114 -77 -54 -217 93 -217 73 0 115 20 134 65 19 46 18 74 -5 111 -39 64 -156 86 -222 41z m161 -27 c22 -22 27 -88 10 -121 -13 -24 -61 -49 -95 -49 -72 0 -102 105 -46 161 37 36 99 41 131 9z"/>
 <path d="M2040 283 c0 -6 10 -13 23 -15 21 -3 22 -8 25 -90 3 -79 1 -87 -18 -93 -47 -15 -13 -25 86 -25 l106 0 -7 27 c-9 38 -14 41 -29 20 -9 -11 -26 -17 -50 -17 -35 0 -36 1 -36 35 0 33 2 35 35 35 19 0 35 -4 35 -10 0 -5 7 -10 15 -10 11 0 15 11 15 40 0 29 -4 40 -15 40 -8 0 -15 -7 -15 -15 0 -10 -11 -15 -35 -15 -34 0 -35 1 -35 40 l0 40 45 0 c34 0 48 -5 57 -20 20 -31 42 -26 33 7 -4 16 -9 30 -12 33 -2 3 -54 5 -114 5 -77 0 -109 -3 -109 -12z"/>
 <path d="M2290 283 c0 -7 9 -13 19 -13 25 0 31 -19 31 -101 0 -58 -3 -71 -20 -81 -33 -21 -23 -28 40 -28 56 0 78 11 46 23 -16 6 -29 108 -20 155 6 30 9 32 50 32 35 0 47 -5 60 -25 9 -14 23 -25 30 -25 17 0 17 3 0 45 l-15 35 -110 -3 c-81 -1 -111 -5 -111 -14z"/>
 <path d="M2104 39 c-7 -12 15 -31 31 -26 6 2 11 11 13 20 4 19 -32 24 -44 6z"/>
 <path d="M2182 33 c4 -22 43 -25 43 -3 0 8 -11 16 -23 18 -19 3 -23 0 -20 -15z"/>
 </g>

</svg>